<svg width="121" height="31" viewBox="0 0 121 31" fill="none" xmlns="http://www.w3.org/2000/svg">
<path d="M0.859375 28.3828C2.88672 26.8945 4.93164 23.0625 6.99414 16.8867C8.18945 13.2891 9.02148 10.043 9.49023 7.14844C9.61914 6.33984 9.68359 5.71875 9.68359 5.28516C9.20312 5.30859 8.75781 5.4375 8.34766 5.67188L7.0293 6.42773C6.66602 6.62695 6.17969 6.46875 5.57031 5.95312C4.97266 5.4375 4.69727 5.00391 4.74414 4.65234C4.80273 4.28906 5.00195 3.99609 5.3418 3.77344C5.69336 3.53906 6.09766 3.33984 6.55469 3.17578C7.51562 2.83594 8.31836 2.66602 8.96289 2.66602C9.61914 2.66602 10.1934 2.71875 10.6855 2.82422C11.1895 2.91797 11.6465 3.08203 12.0566 3.31641C12.9941 3.85547 13.4746 4.62891 13.498 5.63672C13.5449 7.38281 12.9531 10.3477 11.7227 14.5312C9.77734 21.1523 7.49219 25.8047 4.86719 28.4883C4.15234 29.2266 3.4082 29.7305 2.63477 30C2.42383 30.082 2.20703 30.123 1.98438 30.123C1.77344 30.123 1.58008 30.082 1.4043 30C1.22852 29.9297 1.08203 29.8359 0.964844 29.7188C0.71875 29.4961 0.595703 29.25 0.595703 28.9805C0.595703 28.7109 0.683594 28.5117 0.859375 28.3828ZM34.2402 5.9707C33.9004 6.2168 33.502 6.4043 33.0449 6.5332C32.5996 6.65039 31.9961 6.70898 31.2344 6.70898C30.4844 6.70898 29.5059 6.65625 28.2988 6.55078C28.0176 7.3125 27.7305 8.20312 27.4375 9.22266L25.416 16.1133C22.9199 24.3633 20.2598 28.9922 17.4355 30C17.2363 30.082 16.9785 30.123 16.6621 30.123C16.3574 30.123 16.1055 30.082 15.9062 30C15.7188 29.9297 15.5605 29.8359 15.4316 29.7188C15.1738 29.5078 15.0449 29.2969 15.0449 29.0859C15.0449 28.875 15.0977 28.7344 15.2031 28.6641L15.6602 28.3828C17.3477 27.2812 18.8945 24.3516 20.3008 19.5938L21.5664 15.3047C22.7031 11.4492 23.7637 8.41992 24.748 6.2168C23.8223 6.13477 23.1191 6.09375 22.6387 6.09375C21.2559 6.09375 20.2598 6.28711 19.6504 6.67383C19.0527 7.06055 18.6309 7.48242 18.3848 7.93945C18.1504 8.38477 18.0273 8.69531 18.0156 8.87109C17.9805 9.19922 17.875 9.41016 17.6992 9.50391C17.5234 9.58594 17.3066 9.62695 17.0488 9.62695C16.8027 9.62695 16.5449 9.53906 16.2754 9.36328C16.0059 9.17578 15.7832 8.94141 15.6074 8.66016C15.2324 8.08594 15.0859 7.44141 15.168 6.72656C15.25 6 15.4844 5.37891 15.8711 4.86328C16.2695 4.33594 16.7383 3.9082 17.2773 3.58008C18.2734 2.9707 19.3223 2.66602 20.4238 2.66602C21.5371 2.66602 22.5859 2.72461 23.5703 2.8418C24.5664 2.94727 25.5566 3.07031 26.541 3.21094C29.1543 3.5625 30.8184 3.73828 31.5332 3.73828C32.248 3.73828 32.7754 3.69727 33.1152 3.61523C33.4668 3.5332 33.7656 3.41016 34.0117 3.24609C34.2578 3.08203 34.4277 2.97656 34.5215 2.92969C34.627 2.87109 34.791 2.8418 35.0137 2.8418C35.3652 2.8418 35.5176 3.11133 35.4707 3.65039C35.4238 4.17773 35.2949 4.63477 35.084 5.02148C34.873 5.39648 34.5918 5.71289 34.2402 5.9707ZM42.5898 22.6172L42.6074 22.1074C42.7363 18.6035 43.6211 15.293 45.2617 12.1758C46.7734 9.32812 48.6777 7.02539 50.9746 5.26758C53.248 3.5332 55.4629 2.66602 57.6191 2.66602C59.2598 2.66602 60.5547 3.23437 61.5039 4.37109C62.3125 5.35547 62.7168 6.5625 62.7168 7.99219C62.7168 9.70312 62.0898 11.3906 60.8359 13.0547C60.1094 14.0156 59.3359 14.707 58.5156 15.1289C58.1289 15.3398 57.7656 15.4453 57.4258 15.4453C57.0977 15.4453 56.793 15.375 56.5117 15.2344C56.2305 15.0938 55.9844 14.918 55.7734 14.707C55.3398 14.25 55.123 13.8398 55.123 13.4766C55.123 13.1133 55.2168 12.8613 55.4043 12.7207C57.3262 11.3379 58.6328 9.91406 59.3242 8.44922C59.5938 7.88672 59.7285 7.33594 59.7285 6.79688C59.7285 5.66016 59.1895 5.0918 58.1113 5.0918C56.4238 5.0918 54.6836 6.01172 52.8906 7.85156C51.2148 9.55078 49.8086 11.6836 48.6719 14.25C47.4883 16.8867 46.8613 19.3066 46.791 21.5098L46.7734 22.1777C46.7734 24.8145 47.3301 26.543 48.4434 27.3633C48.8418 27.6562 49.3164 27.8027 49.8672 27.8027C50.4297 27.8027 50.957 27.7324 51.4492 27.5918C51.9414 27.4512 52.4336 27.2578 52.9258 27.0117C53.7227 26.6016 54.7422 25.8926 55.9844 24.8848C56.3594 24.5918 56.6699 24.6328 56.916 25.0078C57.127 25.3125 57.2324 25.6641 57.2324 26.0625C57.2324 26.7305 57.1387 27.1875 56.9512 27.4336C56.7754 27.668 56.4648 27.9492 56.0195 28.2773C55.5859 28.6055 55.0527 28.9102 54.4199 29.1914C52.9434 29.8477 51.4961 30.1758 50.0781 30.1758C48.6602 30.1758 47.5176 30.0059 46.6504 29.666C45.7832 29.3145 45.0508 28.8164 44.4531 28.1719C43.2109 26.8125 42.5898 24.9609 42.5898 22.6172ZM62.2246 29.2969C61.9316 28.9922 61.6914 28.6055 61.5039 28.1367C61.3281 27.6562 61.2402 27.1055 61.2402 26.4844C61.2402 25.8516 61.3809 25.0078 61.6621 23.9531C61.9551 22.8984 62.3242 21.6973 62.7695 20.3496L64.2461 15.9727C66.3438 9.87891 67.5566 5.16797 67.8848 1.83984C67.9902 0.855469 68.4707 0.363281 69.3262 0.363281C69.8652 0.363281 70.3105 0.492187 70.6621 0.75C71.3418 1.26562 71.6699 1.83984 71.6465 2.47266C71.623 3.10547 71.5117 3.87891 71.3125 4.79297C71.1133 5.69531 70.8555 6.68555 70.5391 7.76367C70.2227 8.83008 69.8594 9.96094 69.4492 11.1562L67.0234 18.293C65.6289 22.3477 64.9316 24.9668 64.9316 26.1504C64.9316 26.7832 65.1895 27.0996 65.7051 27.0996C66.1973 27.0996 66.6426 26.9941 67.041 26.7832C67.4512 26.5723 67.7148 26.4668 67.832 26.4668C68.0781 26.4668 68.2012 26.5898 68.2012 26.8359C68.2012 27.8789 67.668 28.752 66.6016 29.4551C65.8867 29.9355 65.2305 30.1758 64.6328 30.1758C64.0469 30.1758 63.5723 30.1055 63.209 29.9648C62.8457 29.8242 62.5176 29.6016 62.2246 29.2969ZM84.9883 25.3242C84.9883 26.4023 85.3691 26.9414 86.1309 26.9414C86.6582 26.9414 87.0918 26.8594 87.4316 26.6953C87.7832 26.5312 88.0176 26.4492 88.1348 26.4492C88.3809 26.4492 88.5039 26.5781 88.5039 26.8359C88.5039 27.8438 87.9766 28.7109 86.9219 29.4375C85.8086 30.1992 84.6719 30.3867 83.5117 30C82.75 29.7305 82.1875 29.1504 81.8242 28.2598C81.6484 27.8027 81.5605 27.3867 81.5605 27.0117C81.5605 26.4023 81.6191 25.7578 81.7363 25.0781C80.6465 27.3047 79.293 28.8398 77.6758 29.6836C77.0312 30.0117 76.3457 30.1758 75.6191 30.1758C74.8926 30.1758 74.2598 30.0293 73.7207 29.7363C73.1934 29.4316 72.7422 29.0156 72.3672 28.4883C71.6055 27.3867 71.2598 26.0039 71.3301 24.3398C71.4004 22.2539 72.0156 20.209 73.1758 18.2051C74.2422 16.3301 75.5898 14.8008 77.2188 13.6172C78.8477 12.4102 80.3711 11.8066 81.7891 11.8066C83.207 11.8066 84.3496 12.457 85.2168 13.7578C86.0254 12.457 86.7402 11.8066 87.3613 11.8066C88.0293 11.8066 88.5332 11.9297 88.873 12.1758C89.5176 12.6445 89.7461 13.0547 89.5586 13.4062C86.6172 19.4297 85.1055 23.1797 85.0234 24.6562C85 24.8672 84.9883 25.0898 84.9883 25.3242ZM75.2324 25.3945C75.2324 26.8008 75.6836 27.5039 76.5859 27.5039C77.2773 27.5039 78.127 26.918 79.1348 25.7461C80.6113 24.0234 81.918 21.7031 83.0547 18.7852C83.418 17.8711 83.7227 16.957 83.9688 16.043C83.9219 15.2461 83.5879 14.6602 82.9668 14.2852C82.7559 14.1562 82.4395 14.0918 82.0176 14.0918C81.6074 14.0918 81.1211 14.2441 80.5586 14.5488C80.0078 14.8535 79.4688 15.2695 78.9414 15.7969C78.4258 16.3242 77.9395 16.9512 77.4824 17.6777C77.0371 18.3926 76.6445 19.1719 76.3047 20.0156C75.5898 21.8203 75.2324 23.6133 75.2324 25.3945ZM90.0859 26.9062C90.0859 26.543 90.1621 26.209 90.3145 25.9043C90.4785 25.5879 90.6777 25.3242 90.9121 25.1133C91.4043 24.6562 91.9199 24.4277 92.459 24.4277C92.9277 24.4277 93.1621 24.668 93.1621 25.1484C93.1621 26.3672 93.5664 27.2168 94.375 27.6973C94.668 27.873 94.9727 27.9609 95.2891 27.9609C95.6055 27.9609 95.875 27.9258 96.0977 27.8555C96.3203 27.7852 96.5254 27.6738 96.7129 27.5215C97.1348 27.1816 97.3457 26.7773 97.3457 26.3086C97.3457 25.8398 97.2402 25.4121 97.0293 25.0254C96.8184 24.627 96.5547 24.2109 96.2383 23.7773L95.2363 22.3711C93.8301 20.4961 93.127 18.7676 93.127 17.1855C93.127 15.873 93.6836 14.6836 94.7969 13.6172C96.0625 12.4102 97.6855 11.8066 99.666 11.8066C101.4 11.8066 102.754 12.2344 103.727 13.0898C104.523 13.7812 104.922 14.5723 104.922 15.4629C104.922 16.3887 104.57 17.127 103.867 17.6777C103.234 18.1699 102.602 18.3516 101.969 18.2227C101.688 18.1641 101.471 18.0234 101.318 17.8008C101.166 17.5664 101.137 17.3027 101.23 17.0098C101.324 16.7168 101.371 16.4121 101.371 16.0957C101.371 15.7793 101.312 15.4863 101.195 15.2168C101.078 14.9473 100.92 14.7188 100.721 14.5312C100.311 14.1445 99.877 13.9512 99.4199 13.9512C98.9746 13.9512 98.6055 14.0039 98.3125 14.1094C98.0195 14.2031 97.7617 14.3438 97.5391 14.5312C97.082 14.9531 96.8535 15.4746 96.8535 16.0957C96.8535 16.7051 96.959 17.2324 97.1699 17.6777C97.3809 18.123 97.6387 18.5684 97.9434 19.0137C98.2598 19.459 98.5996 19.9102 98.9629 20.3672C99.3262 20.8242 99.6602 21.3047 99.9648 21.8086C100.703 22.9922 101.072 24.0352 101.072 24.9375C101.072 25.8281 100.885 26.5781 100.51 27.1875C100.135 27.7852 99.6484 28.3008 99.0508 28.7344C97.7734 29.6836 96.3438 30.1582 94.7617 30.1582C93.25 30.1582 92.0547 29.7949 91.1758 29.0684C90.4492 28.459 90.0859 27.7383 90.0859 26.9062ZM105.344 26.9062C105.344 26.543 105.42 26.209 105.572 25.9043C105.736 25.5879 105.936 25.3242 106.17 25.1133C106.662 24.6562 107.178 24.4277 107.717 24.4277C108.186 24.4277 108.42 24.668 108.42 25.1484C108.42 26.3672 108.824 27.2168 109.633 27.6973C109.926 27.873 110.23 27.9609 110.547 27.9609C110.863 27.9609 111.133 27.9258 111.355 27.8555C111.578 27.7852 111.783 27.6738 111.971 27.5215C112.393 27.1816 112.604 26.7773 112.604 26.3086C112.604 25.8398 112.498 25.4121 112.287 25.0254C112.076 24.627 111.812 24.2109 111.496 23.7773L110.494 22.3711C109.088 20.4961 108.385 18.7676 108.385 17.1855C108.385 15.873 108.941 14.6836 110.055 13.6172C111.32 12.4102 112.943 11.8066 114.924 11.8066C116.658 11.8066 118.012 12.2344 118.984 13.0898C119.781 13.7812 120.18 14.5723 120.18 15.4629C120.18 16.3887 119.828 17.127 119.125 17.6777C118.492 18.1699 117.859 18.3516 117.227 18.2227C116.945 18.1641 116.729 18.0234 116.576 17.8008C116.424 17.5664 116.395 17.3027 116.488 17.0098C116.582 16.7168 116.629 16.4121 116.629 16.0957C116.629 15.7793 116.57 15.4863 116.453 15.2168C116.336 14.9473 116.178 14.7188 115.979 14.5312C115.568 14.1445 115.135 13.9512 114.678 13.9512C114.232 13.9512 113.863 14.0039 113.57 14.1094C113.277 14.2031 113.02 14.3438 112.797 14.5312C112.34 14.9531 112.111 15.4746 112.111 16.0957C112.111 16.7051 112.217 17.2324 112.428 17.6777C112.639 18.123 112.896 18.5684 113.201 19.0137C113.518 19.459 113.857 19.9102 114.221 20.3672C114.584 20.8242 114.918 21.3047 115.223 21.8086C115.961 22.9922 116.33 24.0352 116.33 24.9375C116.33 25.8281 116.143 26.5781 115.768 27.1875C115.393 27.7852 114.906 28.3008 114.309 28.7344C113.031 29.6836 111.602 30.1582 110.02 30.1582C108.508 30.1582 107.312 29.7949 106.434 29.0684C105.707 28.459 105.344 27.7383 105.344 26.9062Z" fill="white"/>
</svg>
